<svg width="139" height="203" viewBox="0 0 139 203" fill="none"
	xmlns="http://www.w3.org/2000/svg">
	<path d="M67.9837 125.975H44.8801C43.3381 125.975 42.1714 125.316 41.4071 123.983C40.6294 122.65 40.254 121.153 40.254 119.476V74.7836H60.7563C63.6795 74.7836 66.5356 75.7728 69.2978 77.7512V70.3322L68.0776 71.0191C67.3401 71.555 66.2674 72.0633 64.846 72.5579C63.4247 73.0525 62.057 73.2998 60.7563 73.2998H40.254V45.6708H68.5603C70.2632 45.6708 71.9394 46.1791 73.5619 47.2095C75.1844 48.2399 76.2705 49.0505 76.7934 49.6688C77.3164 50.2733 77.7052 50.7679 77.9466 51.1526L77.0884 43.5L68.5469 44.1869H29.5L30.3582 45.2174C30.9213 45.973 31.5113 47.0309 32.1281 48.3499C32.7316 49.6825 33.0399 50.9603 33.0399 52.1693V119.463C33.0399 122.197 31.86 124.862 29.5 127.459L80.2529 127.5L81.5 125.027C80.7089 125.453 69.4855 126.016 67.9837 125.961V125.975Z" fill="white"/>
	<path d="M99.0666 138.229C99.5525 139.933 100.011 141.846 100.416 143.968C100.821 146.09 101.132 147.822 101.334 149.134C101.537 150.447 101.847 151.801 102.252 153.197C102.657 154.594 103.129 155.697 103.669 156.507C104.196 157.316 104.965 157.973 105.937 158.475C106.922 158.978 108.11 159.229 109.5 159.229V160.5C105.491 160.5 101.982 159.537 98.9992 157.596C96.0028 155.669 94.1132 152.457 93.2898 147.961C91.8996 140.002 90.01 134.683 87.648 132.016C85.2725 129.349 80.7644 128.008 74.1373 128.008H64.3113V150.977C64.3113 152.22 64.5947 153.505 65.1751 154.859C65.742 156.213 66.3629 157.233 67.0107 157.931L67.8745 159.09H53.5C55.8755 156.465 57.0633 153.756 57.0633 150.963V92.6124C57.0633 91.3697 56.7529 90.0852 56.1455 88.7308C55.5246 87.3764 54.9307 86.3152 54.3638 85.5472L53.5 84.5H69.4672C76.3508 84.5 82.1816 85.1144 86.9731 86.3571C91.7646 87.5998 95.3414 89.3172 97.7169 91.5233C100.092 93.7295 101.766 95.9775 102.751 98.2534C103.737 100.529 104.223 103.029 104.223 105.738C104.223 117.732 96.9341 124.923 82.3571 127.31C91.6971 127.925 97.258 131.569 99.0666 138.215V138.229ZM64.3113 126.514H74.1373C78.3079 126.514 81.8982 125.844 84.881 124.49C87.8639 123.135 90.118 121.362 91.6297 119.156C93.1413 116.95 94.2076 114.744 94.8285 112.537C95.4494 110.331 95.7463 108.027 95.7463 105.64C95.7463 99.2169 93.2088 94.3438 88.1339 91.0207C83.0589 87.6975 76.6342 86.0359 68.8463 86.0359H64.2978V126.528L64.3113 126.514Z" fill="white"/>
	<path d="M69.5 201.5C107.055 201.5 137.5 156.728 137.5 101.5C137.5 46.2715 107.055 1.5 69.5 1.5C31.9446 1.5 1.5 46.2715 1.5 101.5C1.5 156.728 31.9446 201.5 69.5 201.5Z" stroke="white" stroke-width="2" stroke-miterlimit="10"/>
</svg>
	